<?xml version="1.0" encoding="UTF-8"?>
<svg width="1086px" height="376px" viewBox="0 0 1086 376" version="1.1" xmlns="http://www.w3.org/2000/svg" xmlns:xlink="http://www.w3.org/1999/xlink">
    <!-- Generator: Sketch 50.2 (55047) - http://www.bohemiancoding.com/sketch -->
    <title>leaves</title>
    <desc>Created with Sketch.</desc>
    <defs></defs>
    <g id="Page-2" stroke="none" stroke-width="1" fill="none" fill-rule="evenodd">
        <g id="leaves">
            <g id="if_Eco_leaves_nature_2992440">
                <path d="M64.338,327.119 C84.543,359.115 214.983,421.933 288.184,318.879 C331.505,257.885 357.371,134.379 293.194,0.457 C103.348,58.916 59.968,145.046 64.338,327.119 Z" id="Shape" fill="#7AC143"></path>
                <path d="M281.915,108.371 C281.915,108.371 164.69,298.243 0.192,351.791 L8.125,366.684 C8.125,366.684 183.755,331.641 281.915,108.371 Z" id="Shape" fill="#3F8640"></path>
                <path d="M132.242,200.625 C132.168,200.828 103.71,284.992 100.971,311.871 L119.466,302.65 C122.061,277.328 132.168,200.824 132.242,200.625 Z" id="Shape" fill="#3F8640"></path>
                <path d="M196.323,170.353 C196.248,170.492 169.119,230.473 165.133,250.086 L179.448,244.645 C183.207,226.166 196.248,170.491 196.323,170.353 Z" id="Shape" fill="#3F8640"></path>
                <path d="M251.535,244.881 C251.316,244.912 166.39,259.463 142.198,269.526 L158.598,281.065 C181.389,271.582 251.322,244.912 251.535,244.881 Z" id="Shape" fill="#3F8640"></path>
                <path d="M234.805,142.922 C234.774,143.026 222.701,186.356 222.056,200.023 L231.16,194.859 C231.768,181.983 234.773,143.027 234.805,142.922 Z" id="Shape" fill="#3F8640"></path>
                <path d="M286.146,185.818 C286.008,185.841 227.972,195.781 211.443,202.651 L222.647,210.538 C238.227,204.063 286.015,185.835 286.146,185.818 Z" id="Shape" fill="#3F8640"></path>
            </g>
            <g id="if_Eco_leaves_nature_2992440-Copy" transform="translate(377.000000, 0.000000)">
                <path d="M64.338,327.119 C84.543,359.115 214.983,421.933 288.184,318.879 C331.505,257.885 357.371,134.379 293.194,0.457 C103.348,58.916 59.968,145.046 64.338,327.119 Z" id="Shape" fill="#7AC143"></path>
                <path d="M281.915,108.371 C281.915,108.371 164.69,298.243 0.192,351.791 L8.125,366.684 C8.125,366.684 183.755,331.641 281.915,108.371 Z" id="Shape" fill="#3F8640"></path>
                <path d="M132.242,200.625 C132.168,200.828 103.71,284.992 100.971,311.871 L119.466,302.65 C122.061,277.328 132.168,200.824 132.242,200.625 Z" id="Shape" fill="#3F8640"></path>
                <path d="M196.323,170.353 C196.248,170.492 169.119,230.473 165.133,250.086 L179.448,244.645 C183.207,226.166 196.248,170.491 196.323,170.353 Z" id="Shape" fill="#3F8640"></path>
                <path d="M251.535,244.881 C251.316,244.912 166.39,259.463 142.198,269.526 L158.598,281.065 C181.389,271.582 251.322,244.912 251.535,244.881 Z" id="Shape" fill="#3F8640"></path>
                <path d="M234.805,142.922 C234.774,143.026 222.701,186.356 222.056,200.023 L231.16,194.859 C231.768,181.983 234.773,143.027 234.805,142.922 Z" id="Shape" fill="#3F8640"></path>
                <path d="M286.146,185.818 C286.008,185.841 227.972,195.781 211.443,202.651 L222.647,210.538 C238.227,204.063 286.015,185.835 286.146,185.818 Z" id="Shape" fill="#3F8640"></path>
            </g>
            <g id="if_Eco_leaves_nature_2992440-Copy-2" transform="translate(754.000000, 0.000000)">
                <path d="M64.338,327.119 C84.543,359.115 214.983,421.933 288.184,318.879 C331.505,257.885 357.371,134.379 293.194,0.457 C103.348,58.916 59.968,145.046 64.338,327.119 Z" id="Shape" fill="#7AC143"></path>
                <path d="M281.915,108.371 C281.915,108.371 164.69,298.243 0.192,351.791 L8.125,366.684 C8.125,366.684 183.755,331.641 281.915,108.371 Z" id="Shape" fill="#3F8640"></path>
                <path d="M132.242,200.625 C132.168,200.828 103.71,284.992 100.971,311.871 L119.466,302.65 C122.061,277.328 132.168,200.824 132.242,200.625 Z" id="Shape" fill="#3F8640"></path>
                <path d="M196.323,170.353 C196.248,170.492 169.119,230.473 165.133,250.086 L179.448,244.645 C183.207,226.166 196.248,170.491 196.323,170.353 Z" id="Shape" fill="#3F8640"></path>
                <path d="M251.535,244.881 C251.316,244.912 166.39,259.463 142.198,269.526 L158.598,281.065 C181.389,271.582 251.322,244.912 251.535,244.881 Z" id="Shape" fill="#3F8640"></path>
                <path d="M234.805,142.922 C234.774,143.026 222.701,186.356 222.056,200.023 L231.16,194.859 C231.768,181.983 234.773,143.027 234.805,142.922 Z" id="Shape" fill="#3F8640"></path>
                <path d="M286.146,185.818 C286.008,185.841 227.972,195.781 211.443,202.651 L222.647,210.538 C238.227,204.063 286.015,185.835 286.146,185.818 Z" id="Shape" fill="#3F8640"></path>
            </g>
        </g>
    </g>
</svg>