<?xml version="1.0" encoding="UTF-8"?>
<svg width="1535px" height="475px" viewBox="0 0 1535 475" version="1.1" xmlns="http://www.w3.org/2000/svg" xmlns:xlink="http://www.w3.org/1999/xlink">
    <!-- Generator: Sketch 50.2 (55047) - http://www.bohemiancoding.com/sketch -->
    <title>space-footer</title>
    <desc>Created with Sketch.</desc>
    <defs></defs>
    <g id="Page-2" stroke="none" stroke-width="1" fill="none" fill-rule="evenodd">
        <g id="space-footer" transform="translate(8.000000, 0.000000)">
            <g id="if_planet_earth_venues_univearse_pluto_1039576" transform="translate(0.000000, 22.000000)">
                <circle id="XMLID_41_" stroke="#414042" stroke-width="20" fill="#50ABC4" fill-rule="nonzero" cx="199" cy="211.6" r="195.1"></circle>
                <path d="M382.5,213.9 C382.5,311.1 328.4,381.1 231.1,394.9 C134.6,408.6 29.5,311.1 29.5,213.9 C29.5,116.7 108.5,28.1 206,28.1 C303.5,28.1 382.5,116.7 382.5,213.9 Z" id="XMLID_40_" fill="#AEDEEF" fill-rule="nonzero"></path>
                <path d="M377.6,210.4 C377.6,305.2 323.3,373.4 225.7,386.9 C128.9,400.2 23.5,305.2 23.5,210.4 C23.5,115.6 102.8,29 200.6,28.1 C315.5,26.9 377.6,115.6 377.6,210.4 Z" id="XMLID_39_" fill="#5FC7E6" fill-rule="nonzero"></path>
                <circle id="XMLID_37_" stroke="#414042" stroke-width="15" fill="#B72679" fill-rule="nonzero" cx="244.3" cy="398.3" r="22.6"></circle>
                <circle id="XMLID_32_" fill="#414042" fill-rule="nonzero" cx="46.1" cy="5.7" r="5"></circle>
                <circle id="XMLID_31_" fill="#414042" fill-rule="nonzero" cx="191.3" cy="158.1" r="5"></circle>
                <circle id="XMLID_30_" fill="#414042" fill-rule="nonzero" cx="50.2" cy="286.9" r="11.3"></circle>
                <circle id="XMLID_28_" fill="#414042" fill-rule="nonzero" cx="271.6" cy="442.7" r="9.7"></circle>
                <circle id="XMLID_27_" fill="#414042" fill-rule="nonzero" cx="214" cy="163.1" r="5"></circle>
                <circle id="XMLID_26_" fill="#414042" fill-rule="nonzero" cx="196.3" cy="124.6" r="5"></circle>
                <circle id="XMLID_25_" fill="#414042" fill-rule="nonzero" cx="226.4" cy="129.6" r="17.4"></circle>
                <path d="M216.2,358.2 C224.1,352.6 233.8,349.4 244.2,349.4 C271.2,349.4 293.1,371.3 293.1,398.3 C293.1,407.9 290.3,416.9 285.5,424.5" id="XMLID_24_" stroke="#414042" stroke-width="17" stroke-linecap="round" stroke-linejoin="round"></path>
                <circle id="XMLID_29_" stroke="#414042" stroke-width="16" fill="#5FC7E6" fill-rule="nonzero" cx="23.5" cy="46.1" r="22.6"></circle>
            </g>
            <g id="if_planet_univearse_telestial_space_pluto_1039573" transform="translate(507.000000, 16.000000)">
                <circle id="XMLID_173_" stroke="#414042" stroke-width="20" fill="#B9D4DB" fill-rule="nonzero" cx="256.4" cy="232.5" r="195.1"></circle>
                <path d="M431.6,231.3 C431.6,330.4 378.8,401.8 283.7,415.9 C189.4,429.8 86.8,330.5 86.8,231.3 C86.8,132.1 164,41.8 259.3,41.8 C354.6,41.8 431.6,132.2 431.6,231.3 Z" id="XMLID_172_" fill="#AEDEEF" fill-rule="nonzero"></path>
                <path d="M431.6,229.4 C431.6,326.9 377.9,397.1 281.1,411 C185.2,424.7 80.8,327 80.8,229.4 C80.8,131.8 159.4,42.8 256.3,41.8 C370.1,40.7 431.6,131.9 431.6,229.4 Z" id="XMLID_171_" fill="#E4F5FD" fill-rule="nonzero"></path>
                <circle id="XMLID_169_" stroke="#414042" stroke-width="10" fill="#FBEC7D" fill-rule="nonzero" cx="231.1" cy="327.5" r="22.6"></circle>
                <circle id="XMLID_164_" fill="#414042" fill-rule="nonzero" cx="126" cy="269.2" r="5"></circle>
                <circle id="XMLID_163_" fill="#414042" fill-rule="nonzero" cx="284.1" cy="171.2" r="5"></circle>
                <circle id="XMLID_162_" fill="#414042" fill-rule="nonzero" cx="167" cy="179.3" r="11.3"></circle>
                <path d="M126,327.5 C126,339.1 133.5,348.5 142.7,348.5" id="XMLID_161_" stroke="#414042" stroke-width="10" stroke-linecap="round" stroke-linejoin="round"></path>
                <circle id="XMLID_159_" fill="#414042" fill-rule="nonzero" cx="315.6" cy="9.2" r="5"></circle>
                <circle id="XMLID_157_" fill="#414042" fill-rule="nonzero" cx="142.7" cy="26.7" r="9.1"></circle>
                <circle id="XMLID_165_" stroke="#414042" stroke-width="13" fill="#B9D4DB" fill-rule="nonzero" cx="259.3" cy="327.5" r="22.6"></circle>
                <path d="M113.3,447.8 C44.9,399.4 0.3,319.6 0.3,229.5 C0.3,153.3 32.2,84.5 83.4,35.8" id="XMLID_166_" stroke="#414042" stroke-width="20" stroke-linecap="round" stroke-linejoin="round"></path>
                <circle id="XMLID_170_" stroke="#414042" stroke-width="15.9261" fill="#BE1E2D" fill-rule="nonzero" cx="86.9" cy="26.7" r="25.8"></circle>
                <circle id="XMLID_22_" stroke="#414042" stroke-width="13" fill="#F9ED32" fill-rule="nonzero" cx="409.1" cy="37.4" r="22.6"></circle>
            </g>
            <g id="if_planet_earth_venues_univearse_mars_1039578" transform="translate(1071.000000, 0.000000)">
                <circle id="XMLID_217_" stroke="#414042" stroke-width="20" fill="#E8D55F" fill-rule="nonzero" cx="226.4" cy="242.6" r="195.1"></circle>
                <path d="M409.9,244 C409.9,337.1 355.8,404.1 258.5,417.3 C161.9,430.5 56.9,337.1 56.9,244 C56.9,150.9 135.9,66 233.4,66 C330.9,66 409.9,150.9 409.9,244 Z" id="XMLID_216_" fill="#F9F5B8" fill-rule="nonzero"></path>
                <path d="M403.7,243.8 C403.7,342.2 349.6,413.1 252.3,427.1 C155.9,441 50.9,342.3 50.9,243.8 C50.9,145.3 129.9,55.4 227.3,54.4 C341.8,53.3 403.7,145.4 403.7,243.8 Z" id="XMLID_215_" fill="#FBEC7D" fill-rule="nonzero"></path>
                <circle id="XMLID_214_" stroke="#414042" stroke-width="16" fill="#5FC5E5" fill-rule="nonzero" cx="368.6" cy="47.5" r="26.6"></circle>
                <circle id="XMLID_208_" fill="#414042" fill-rule="nonzero" cx="229" cy="289.2" r="5"></circle>
                <circle id="XMLID_207_" fill="#414042" fill-rule="nonzero" cx="254.1" cy="181.2" r="5"></circle>
                <circle id="XMLID_206_" fill="#414042" fill-rule="nonzero" cx="137" cy="451.8" r="11.3"></circle>
                <path d="M350.3,135.3 C345.5,121.6 333.4,113.3 323.1,116.9" id="XMLID_205_" stroke="#414042" stroke-width="12.1497" stroke-linecap="round" stroke-linejoin="round"></path>
                <circle id="XMLID_204_" fill="#414042" fill-rule="nonzero" cx="142" cy="24.2" r="5"></circle>
                <circle id="XMLID_203_" fill="#414042" fill-rule="nonzero" cx="285.6" cy="19.2" r="5"></circle>
                <circle id="XMLID_202_" fill="#414042" fill-rule="nonzero" cx="373.6" cy="95.2" r="5"></circle>
                <circle id="XMLID_201_" fill="#414042" fill-rule="nonzero" cx="356.9" cy="7.9" r="7.7"></circle>
                <path d="M421.4,268.6 C441.6,291.1 450.2,311.9 443.7,327.6 C426.7,368.2 314.2,359.6 192.6,308.6 C71,257.6 -14,183.2 3.1,142.7 C10.8,124.3 38,116 76.8,117.2" id="XMLID_1_" stroke="#414042" stroke-width="20"></path>
                <circle id="XMLID_213_" stroke="#414042" stroke-width="16" fill="#D1384A" fill-rule="nonzero" cx="192.5" cy="308.6" r="22.6"></circle>
            </g>
        </g>
    </g>
</svg>