<?xml version="1.0" encoding="UTF-8"?>
<svg width="338px" height="100px" viewBox="0 0 338 100" version="1.1" xmlns="http://www.w3.org/2000/svg" xmlns:xlink="http://www.w3.org/1999/xlink">
    <!-- Generator: Sketch 50.2 (55047) - http://www.bohemiancoding.com/sketch -->
    <title>winter-footer</title>
    <desc>Created with Sketch.</desc>
    <defs></defs>
    <g id="Page-2" stroke="none" stroke-width="1" fill="none" fill-rule="evenodd">
        <g id="winter-footer">
            <g id="if_christmas-flat-ten-snowflake_1660120" fill-rule="nonzero">
                <path d="M102.375,41.5 C99.625,41.5 97.25,43.75 95.5,45 L91,45 L94.375,38.625 L85.625,33.375 L85.625,23.25 L78.75,23.25 L81,19.375 C85.125,18.5 88.25,14.75 88.25,10.375 C88.25,5.25 84.125,1.125 79,1.125 C73.875,1.125 69.75,5.25 69.75,10.375 C69.75,11.375 69.875,12.25 70.25,13.25 L68,17.125 L64.5,11.125 L55.875,16.125 L47.25,11.125 L43.75,17.125 L41.5,13.25 C41.75,12.375 42,11.375 42,10.375 C42,5.25 37.875,1.125 32.75,1.125 C27.625,1.125 23.5,5.25 23.5,10.375 C23.5,14.75 26.625,18.5 30.75,19.375 L33,23.25 L26.125,23.25 L26.125,33.25 L17.375,38.75 L21.25,45 L16.75,45 C15,43.75 12.625,41.5 9.875,41.5 C4.75,41.5 0.625,45.375 0.625,50.5 C0.625,55.625 4.75,59.5 9.875,59.5 C12.625,59.5 15,58.75 16.75,56.25 L21.25,56.25 L17.875,62.25 L26.625,67.375 L26.625,77.5 L33.5,77.5 L31.125,81.25 C27,82.125 23.875,85.875 23.875,90.25 C23.875,95.375 28,99.5 33.125,99.5 C38.25,99.5 42.375,95.375 42.375,90.25 C42.375,89.25 42.25,88.375 41.875,87.375 L44.125,83.5 L47.625,89.5 L56.25,84.5 L64.875,89.5 L68.25,83.5 L70.5,87.375 C70.25,88.25 70,89.25 70,90.25 C70,95.375 74.125,99.5 79.25,99.5 C84.375,99.5 88.5,95.375 88.5,90.25 C88.5,85.875 85.375,82.75 81.25,81.875 L79,78.75 L86.25,78.75 L86.25,67.375 L94.75,62.25 L91.125,56.25 L95.625,56.25 C97.375,58.75 99.75,59.375 102.5,59.375 C107.625,59.375 111.75,55.5 111.75,50.375 C111.625,45.375 107.5,41.5 102.375,41.5 Z M10,53.625 C8.125,53.625 6.75,52.125 6.75,50.375 C6.75,48.5 8.25,47.125 10,47.125 C11.75,47.125 13.25,48.625 13.25,50.375 C13.25,52.125 11.75,53.625 10,53.625 Z M33.125,13.625 C31.25,13.625 29.875,12.125 29.875,10.375 C29.875,8.625 31.375,7.125 33.125,7.125 C35,7.125 36.375,8.625 36.375,10.375 C36.375,12.125 34.875,13.625 33.125,13.625 Z M33,93.625 C31.125,93.625 29.75,92.125 29.75,90.375 C29.75,88.5 31.25,87.125 33,87.125 C34.875,87.125 36.25,88.625 36.25,90.375 C36.375,92.125 34.875,93.625 33,93.625 Z M40.5,65 L30.625,64.75 L35.625,56.125 L45.5,56.125 L40.5,65 Z M35.5,45 L30.5,35.875 L40.375,36.125 L45.375,45 L35.5,45 Z M56.25,20.75 L61.25,29.375 L56.25,38 L51.25,29.375 L56.25,20.75 Z M56.25,79.875 L51.25,71.25 L56.25,62.625 L61.25,71.25 L56.25,79.875 Z M79.25,7 C81.125,7 82.5,8.5 82.5,10.25 C82.5,12 81,13.5 79.25,13.5 C77.5,13.5 76,12 76,10.25 C76,8.5 77.5,7 79.25,7 Z M79.375,87 C81.25,87 82.625,88.5 82.625,90.25 C82.625,92.125 81.125,93.5 79.375,93.5 C77.5,93.5 76.125,92 76.125,90.25 C76.125,88.5 77.625,87 79.375,87 Z M71.875,65 L66.875,56.25 L76.75,56.25 L81.75,64.75 L71.875,65 Z M76.875,45 L67,45 L72,36 L81.875,36.25 L76.875,45 Z M102.375,53.625 C100.5,53.625 99.125,52.125 99.125,50.375 C99.125,48.5 100.625,47.125 102.375,47.125 C104.25,47.125 105.625,48.625 105.625,50.375 C105.625,52.125 104.25,53.625 102.375,53.625 Z" id="Shape" fill="#AEDCFF"></path>
                <path d="M81.625,48.375 C81.5,48.375 81.5,48.75 81.375,48.75 L60.125,48.75 L70.75,30 C71,29.625 71.125,29 71.125,28.5 C71.125,27.25 70.125,26.125 68.875,26.125 C68,26.125 67.125,26.625 66.75,27.375 L56.25,45.75 L45.625,27.375 C45.25,26.625 44.5,26 43.5,26 C42.25,26 41.25,27 41.25,28.25 C41.25,28.75 41.375,29.625 41.625,30 L52.25,48.75 L31.25,48.75 C31.125,48.75 31,48.375 30.875,48.375 C29.625,48.375 28.625,49.25 28.625,50.5 C28.625,51.75 29.625,51.875 31,51.875 C31.125,51.875 31.25,51.25 31.375,51.25 L52.5,51.25 L41.875,70.25 C41.625,70.625 41.5,71.375 41.5,71.875 C41.5,73.125 42.5,74.375 43.75,74.375 C44.625,74.375 45.5,73.875 45.875,73.125 L56.25,54.75 L66.875,73.125 C67.25,73.875 68,74.5 69,74.5 C70.25,74.5 71.25,73.5 71.25,72.25 C71.25,71.75 71.125,70.625 70.875,70.25 L60.125,51.25 L81.375,51.25 C81.5,51.25 81.5,51.75 81.625,51.75 C82.875,51.75 83.875,51.375 83.875,50.125 C83.875,48.875 82.875,48.375 81.625,48.375 Z" id="Shape" fill="#ABD7F2"></path>
                <path d="M102.375,41.5 C99.625,41.5 97.25,43.75 95.5,45 L91,45 L94.375,38.625 L85.625,33.375 L85.625,23.25 L78.75,23.25 L81,19.375 C85.125,18.5 88.25,14.75 88.25,10.375 C88.25,5.25 84.125,1.125 79,1.125 C73.875,1.125 69.75,5.25 69.75,10.375 C69.75,11.375 69.875,12.25 70.25,13.25 L68,17.125 L64.5,11.125 L55.875,16.125 L55.875,20.875 L60.75,29.875 L56.25,38.75 L56.25,63.75 L61.25,71.75 L56.25,80.125 L56.25,84.75 L64.875,89.75 L68.25,83.75 L70.5,87.625 C70.25,88.5 70,89.5 70,90.5 C70,95.625 74.125,99.75 79.25,99.75 C84.375,99.75 88.5,95.625 88.5,90.5 C88.5,86.125 85.375,83 81.25,82.125 L79,78.75 L86.25,78.75 L86.25,67.375 L94.75,62.25 L91.125,56.25 L95.625,56.25 C97.375,58.75 99.75,59.375 102.5,59.375 C107.625,59.375 111.75,55.5 111.75,50.375 C111.625,45.375 107.5,41.5 102.375,41.5 Z M79.25,7 C81.125,7 82.5,8.5 82.5,10.25 C82.5,12 81,13.5 79.25,13.5 C77.5,13.5 76,12 76,10.25 C76,8.5 77.5,7 79.25,7 Z M79.375,87 C81.25,87 82.625,88.5 82.625,90.25 C82.625,92.125 81.125,93.5 79.375,93.5 C77.5,93.5 76.125,92 76.125,90.25 C76.125,88.5 77.625,87 79.375,87 Z M71.875,65 L66.875,56.25 L76.75,56.25 L81.75,64.75 L71.875,65 Z M76.875,45 L67,45 L72,36 L81.875,36.25 L76.875,45 Z M102.375,53.625 C100.5,53.625 99.125,52.125 99.125,50.375 C99.125,48.5 100.625,47.125 102.375,47.125 C104.25,47.125 105.625,48.625 105.625,50.375 C105.625,52.125 104.25,53.625 102.375,53.625 Z" id="Shape" fill="#AEDCFF" opacity="0.2"></path>
            </g>
            <g id="if__snowman_snowglobe_1679615" transform="translate(248.000000, 0.000000)">
                <g id="Group">
                    <g>
                        <path d="M20.5380952,80.3603175 L20.5380952,79.9761905 L69.9650794,79.9761905 L69.9650794,80.3603175 C81.4793651,72.4698413 89.0380952,59.2380952 89.0380952,44.2126984 C89.0380952,20.0238095 69.4444444,0.412698413 45.2380952,0.412698413 C21.0571429,0.412698413 1.43809524,20.0238095 1.43809524,44.2126984 C1.43809524,59.2380952 9.00634921,72.4698413 20.5380952,80.3603175 Z" id="Shape" fill="#AEDCFF" fill-rule="nonzero"></path>
                        <path d="M24.3793651,80.3603175 L24.3793651,80.0349206 L66.1206349,80.0349206 L66.1206349,80.3603175 C75.8428571,73.6984127 82.2285714,62.5222222 82.2285714,49.8333333 C82.2285714,29.4063492 65.6793651,12.8412698 45.2365079,12.8412698 C24.815873,12.8412698 8.24444444,29.4063492 8.24444444,49.8333333 C8.24603175,62.5222222 14.6396825,73.6984127 24.3793651,80.3603175 Z" id="Shape" fill="#F0F6FC" fill-rule="nonzero"></path>
                        <path d="M27.9269841,80.3603175 L27.9269841,80.0904762 L62.5714286,80.0904762 L62.5714286,80.3603175 C70.6412698,74.8301587 75.9396825,65.5571429 75.9396825,55.0222222 C75.9396825,38.0698413 62.2063492,24.3206349 45.2380952,24.3206349 C28.2888889,24.3206349 14.5365079,38.0698413 14.5365079,55.0222222 C14.5365079,65.5571429 19.8412698,74.8301587 27.9269841,80.3603175 Z" id="Shape" fill="#D9F1FF" fill-rule="nonzero"></path>
                        <path d="M31.6031746,80.3603175 L31.6031746,80.1492063 L58.8888889,80.1492063 L58.8888889,80.3603175 C65.2444444,76.0047619 69.4174603,68.7 69.4174603,60.4079365 C69.4174603,47.0555556 58.6015873,36.2269841 45.2396825,36.2269841 C31.8936508,36.2269841 21.0619048,47.0555556 21.0619048,60.4079365 C21.0603175,68.7 25.2349206,76.0047619 31.6031746,80.3603175 Z" id="Shape" fill="#97D7FF" fill-rule="nonzero"></path>
                        <path d="M45.2380952,36.2253968 C31.8888889,36.2253968 21.0603175,47.0539683 21.0603175,60.4063492 C21.0603175,68.7 25.2365079,76.0031746 31.6047619,80.3587302 L31.6047619,80.147619 L45.2396825,80.147619 L45.2396825,36.2253968 L45.2380952,36.2253968 Z" id="Shape" fill="#AEDCFF" fill-rule="nonzero"></path>
                        <polygon id="Shape" stroke="#D9EBFC" stroke-width="1.5" stroke-linecap="round" stroke-linejoin="round" points="17.3365079 30.2111111 16.731746 29.1698413 17.3365079 28.1285714 18.5396825 28.1285714 19.1349206 29.1698413 18.5396825 30.2111111"></polygon>
                        <polygon id="Shape" stroke="#D9EBFC" stroke-width="1.5" stroke-linecap="round" stroke-linejoin="round" points="81.1761905 44.8095238 80.5746032 43.768254 81.1761905 42.7269841 82.3777778 42.7269841 82.9730159 43.768254 82.3777778 44.8095238"></polygon>
                        <polygon id="Shape" stroke="#D9EBFC" stroke-width="1.5" stroke-linecap="round" stroke-linejoin="round" points="10.3174603 43.3190476 11.3587302 42.7174603 12.3984127 43.3190476 12.3984127 44.5190476 11.3587302 45.1206349 10.3174603 44.5190476"></polygon>
                        <polygon id="Shape" stroke="#D9EBFC" stroke-width="1.5" stroke-linecap="round" stroke-linejoin="round" points="76.8603175 32.8063492 77.9015873 32.2047619 78.9428571 32.8063492 78.9428571 34.0095238 77.9015873 34.6079365 76.8603175 34.0095238"></polygon>
                        <circle id="Oval" stroke="#D9EBFC" stroke-width="1.5" stroke-linecap="round" stroke-linejoin="round" cx="25.6619048" cy="16.3380952" r="1"></circle>
                        <circle id="Oval" stroke="#D9EBFC" stroke-width="1.5" stroke-linecap="round" stroke-linejoin="round" cx="55.0301587" cy="9.27619048" r="1"></circle>
                        <circle id="Oval" stroke="#D9EBFC" stroke-width="1.5" stroke-linecap="round" stroke-linejoin="round" cx="70.2" cy="22.8539683" r="1"></circle>
                        <circle id="Oval" stroke="#D9EBFC" stroke-width="1.5" stroke-linecap="round" stroke-linejoin="round" cx="40.9222222" cy="9.14920635" r="1"></circle>
                        <circle id="Oval" stroke="#D9EBFC" stroke-width="1.5" stroke-linecap="round" stroke-linejoin="round" cx="19.1349206" cy="19.7634921" r="1"></circle>
                        <circle id="Oval" stroke="#D9EBFC" stroke-width="1.5" stroke-linecap="round" stroke-linejoin="round" cx="68.5777778" cy="28.168254" r="1"></circle>
                        <path d="M57.3079365,17.8825397 C57.3079365,17.9507937 57.252381,18.0095238 57.184127,18.0095238 C57.115873,18.0095238 57.0571429,17.9507937 57.0571429,17.8825397 C57.0571429,17.8174603 57.115873,17.7587302 57.184127,17.7587302 C57.252381,17.7587302 57.3079365,17.8174603 57.3079365,17.8825397 Z" id="Shape" stroke="#D9EBFC" stroke-width="1.5" stroke-linecap="round" stroke-linejoin="round"></path>
                        <circle id="Oval" stroke="#D9EBFC" stroke-width="1.5" stroke-linecap="round" stroke-linejoin="round" cx="64.7079365" cy="14.1206349" r="1"></circle>
                        <circle id="Oval" stroke="#D9EBFC" stroke-width="1.5" stroke-linecap="round" stroke-linejoin="round" cx="35.6634921" cy="15.3301587" r="1"></circle>
                        <path d="M47.6253968,13.9936508 C47.6253968,14.0619048 47.5666667,14.1206349 47.4984127,14.1206349 C47.4333333,14.1206349 47.3714286,14.0619048 47.3714286,13.9936508 C47.3714286,13.9253968 47.4333333,13.8698413 47.4984127,13.8698413 C47.5666667,13.8698413 47.6253968,13.9253968 47.6253968,13.9936508 Z" id="Shape" stroke="#D9EBFC" stroke-width="1.5" stroke-linecap="round" stroke-linejoin="round"></path>
                        <polygon id="Shape" fill="#68B2E0" fill-rule="nonzero" points="20.5380952 79.9761905 69.9650794 79.9761905 75.015873 99.5873016 15.4793651 99.5873016"></polygon>
                        <polygon id="Shape" fill="#379ACC" fill-rule="nonzero" points="29.3460317 79.9761905 61.1507937 79.9761905 64.4031746 99.5873016 26.0936508 99.5873016"></polygon>
                    </g>
                    <path d="M70.9984127,85.7888889 C67.2984127,85.7888889 64.0714286,87.8571429 62.4111111,90.8952381 C60.7507937,87.8571429 57.5238095,85.7888889 53.8238095,85.7888889 C50.1253968,85.7888889 46.9015873,87.8571429 45.2428571,90.8952381 C43.5825397,87.8571429 40.3555556,85.7888889 36.6555556,85.7888889 C32.9555556,85.7888889 29.731746,87.8571429 28.0714286,90.8952381 C26.4111111,87.8571429 23.184127,85.7888889 19.484127,85.7888889 C18.8269841,85.7888889 18.2936508,86.3222222 18.2936508,86.9793651 C18.2936508,87.6365079 18.8269841,88.1698413 19.484127,88.1698413 C22.7904762,88.1698413 25.5634921,90.3650794 26.5079365,93.3619048 C26.2031746,93.7222222 25.9984127,94.1746032 25.9984127,94.6825397 C25.9984127,95.6619048 26.6936508,96.4460317 27.6095238,96.6603175 C27.752381,96.7222222 27.9079365,96.7571429 28.0730159,96.7571429 C28.2380952,96.7571429 28.3936508,96.7238095 28.5365079,96.6603175 C29.447619,96.4428571 30.1412698,95.6619048 30.1412698,94.6825397 C30.1412698,94.1746032 29.9380952,93.7269841 29.6365079,93.3650794 C30.5793651,90.3666667 33.352381,88.1698413 36.6587302,88.1698413 C39.9634921,88.1698413 42.7365079,90.3650794 43.6825397,93.3603175 C43.3761905,93.7238095 43.1698413,94.1730159 43.1698413,94.684127 C43.1698413,95.6634921 43.8666667,96.447619 44.784127,96.6650794 C44.9269841,96.7238095 45.0825397,96.7587302 45.247619,96.7587302 C45.4126984,96.7587302 45.568254,96.7253968 45.7111111,96.6619048 C46.6238095,96.447619 47.3190476,95.6634921 47.3190476,94.684127 C47.3190476,94.1761905 47.1142857,93.7253968 46.8111111,93.3666667 C47.7539683,90.3650794 50.5253968,88.1714286 53.8301587,88.1714286 C57.1365079,88.1714286 59.9111111,90.3666667 60.8555556,93.3666667 C60.552381,93.7269841 60.347619,94.1761905 60.347619,94.684127 C60.347619,95.6634921 61.0428571,96.447619 61.9555556,96.6619048 C62.0984127,96.7238095 62.2539683,96.7587302 62.4190476,96.7587302 C62.584127,96.7587302 62.7396825,96.7253968 62.8825397,96.6619048 C63.7952381,96.447619 64.4904762,95.6634921 64.4904762,94.684127 C64.4904762,94.1761905 64.2857143,93.7253968 63.9825397,93.3666667 C64.9269841,90.3650794 67.7015873,88.1714286 71.0079365,88.1714286 C71.6650794,88.1714286 72.1984127,87.6380952 72.1984127,86.9809524 C72.1984127,86.3238095 71.6555556,85.7888889 70.9984127,85.7888889 Z" id="Shape" fill="#3A80CC" fill-rule="nonzero"></path>
                </g>
                <g id="Group" transform="translate(17.460317, 17.460317)" fill-rule="nonzero">
                    <path d="M36.5730159,31.5698413 C34.1238095,33.1142857 31.1015873,34.0650794 27.7777778,34.0650794 C24.4571429,34.0650794 21.4349206,33.1126984 18.9793651,31.5698413 C12.4603175,34.2396825 7.96507937,39.7698413 7.96507937,46.1714286 C7.96507937,55.1873016 16.8412698,62.4936508 27.7777778,62.4936508 C38.7190476,62.4936508 47.5904762,55.1857143 47.5904762,46.1714286 C47.5904762,39.7698413 43.0952381,34.2380952 36.5730159,31.5698413 Z" id="Shape" fill="#F0F6FC"></path>
                    <path d="M39.0190476,31.5698413 C37.1126984,33.1142857 34.7619048,34.0650794 32.1746032,34.0650794 C29.5920635,34.0650794 27.2428571,33.1126984 25.331746,31.5698413 C20.2603175,34.2396825 16.7634921,39.7698413 16.7634921,46.1714286 C16.7634921,55.1873016 23.668254,62.4936508 32.1746032,62.4936508 C40.6873016,62.4936508 47.5920635,55.1857143 47.5920635,46.1714286 C47.5904762,39.7698413 44.0936508,34.2380952 39.0190476,31.5698413 Z" id="Shape" fill="#D9F1FF"></path>
                    <g transform="translate(0.000000, 22.222222)" fill="#F0F6FC" id="Shape">
                        <g transform="translate(42.857143, 0.000000)">
                            <path d="M12.152381,1.78888889 L0.39047619,13.5412698"></path>
                            <path d="M6.26825397,0.998412698 L6.26825397,7.66031746"></path>
                            <path d="M8.14444444,5.96507937 L12.4095238,5.96507937"></path>
                        </g>
                        <g>
                            <path d="M0.549206349,1.78888889 L12.2984127,13.5412698"></path>
                            <path d="M6.42698413,0.998412698 L6.42698413,7.66031746"></path>
                            <path d="M4.55079365,5.96507937 L0.292063492,5.96507937"></path>
                        </g>
                    </g>
                    <path d="M28.5380952,40.9253968 C28.5380952,41.3539683 28.2,41.6873016 27.7777778,41.6873016 C27.3587302,41.6873016 27.015873,41.352381 27.015873,40.9253968 C27.015873,40.5031746 27.3603175,40.1650794 27.7777778,40.1650794 C28.2,40.1666667 28.5380952,40.5047619 28.5380952,40.9253968 Z" id="Shape" fill="#F0F6FC"></path>
                    <path d="M28.5380952,47.7857143 C28.5380952,48.2111111 28.2,48.547619 27.7777778,48.547619 C27.3587302,48.547619 27.015873,48.2095238 27.015873,47.7857143 C27.015873,47.3730159 27.3603175,47.0253968 27.7777778,47.0253968 C28.2,47.0269841 28.5380952,47.3746032 28.5380952,47.7857143 Z" id="Shape" fill="#F0F6FC"></path>
                    <circle id="Oval" fill="#F0F6FC" cx="27.7761905" cy="54.6507937" r="1"></circle>
                    <rect id="Rectangle-path" fill="#379ACC" x="20.6412698" y="1.24603175" width="14.2698413" height="10.2301587"></rect>
                    <rect id="Rectangle-path" fill="#138CBC" x="24.4174603" y="1.24603175" width="6.71746032" height="10.2301587"></rect>
                    <path d="M34.384127,11.4761905 L21.1714286,11.4761905 C16.4809524,13.4571429 13.231746,17.4412698 13.231746,22.0888889 C13.231746,28.7079365 19.747619,34.0650794 27.7777778,34.0650794 C35.815873,34.0650794 42.3238095,28.7079365 42.3238095,22.0888889 C42.3238095,17.4412698 39.0777778,13.4587302 34.384127,11.4761905 Z" id="Shape" fill="#F0F6FC"></path>
                    <path d="M18.315873,22.0888889 C18.315873,27.9920635 23.5031746,32.8809524 30.3190476,33.8698413 C37.1428571,32.8809524 42.3222222,27.9920635 42.3222222,22.0888889 C42.3222222,17.4412698 39.0761905,13.4571429 34.3825397,11.4761905 L26.2539683,11.4761905 C21.5619048,13.4587302 18.315873,17.4412698 18.315873,22.0888889 Z" id="Shape" fill="#D9F1FF"></path>
                    <path d="M12.7666667,11.4761905 L42.7888889,11.4761905" id="Shape" fill="#F0F6FC"></path>
                    <path d="M22.6968254,20.2968254 C22.6968254,20.4396825 22.5761905,20.5571429 22.4301587,20.5571429 C22.2904762,20.5571429 22.1761905,20.4396825 22.1761905,20.2968254 C22.1761905,20.147619 22.2904762,20.0365079 22.4301587,20.0365079 C22.5761905,20.0365079 22.6968254,20.147619 22.6968254,20.2968254 Z" id="Shape" fill="#F0F6FC"></path>
                    <path d="M20.6412698,24.0111111 L26.4888889,24.0111111" id="Shape" fill="#F0F6FC"></path>
                    <path d="M30.3174603,27.6634921 C28.9190476,29.0650794 26.6444444,29.0650794 25.2365079,27.6634921" id="Shape" fill="#F0F6FC"></path>
                </g>
                <g id="Group" transform="translate(15.873016, 26.984127)" fill-rule="nonzero">
                    <path d="M14.7269841,25.3968254 L9.2047619,19.8730159 L9.2047619,13.6968254 C9.2047619,13.0396825 8.67142857,12.5063492 8.01428571,12.5063492 C7.35714286,12.5063492 6.82380952,13.0396825 6.82380952,13.6968254 L6.82380952,17.4920635 L2.97777778,13.6444444 C2.51269841,13.1793651 1.75873016,13.1793651 1.29365079,13.6444444 C0.828571429,14.1095238 0.828571429,14.8634921 1.29365079,15.3285714 L3.43809524,17.4746032 L1.87936508,17.4746032 C1.22222222,17.4746032 0.688888889,18.0079365 0.688888889,18.6650794 C0.688888889,19.3222222 1.22222222,19.8555556 1.87936508,19.8555556 L5.81746032,19.8555556 L13.0444444,27.0825397 C13.2761905,27.3142857 13.5809524,27.4333333 13.8857143,27.4333333 C14.1904762,27.4333333 14.4952381,27.315873 14.7269841,27.0825397 C15.1920635,26.615873 15.1920635,25.8619048 14.7269841,25.3968254 Z" id="Shape" fill="#138CBC"></path>
                    <g transform="translate(26.984127, 11.111111)" fill="#138CBC" id="Shape">
                        <path d="M29.8698413,6.36190476 L28.3095238,6.36190476 L30.4555556,4.21587302 C30.9206349,3.75079365 30.9206349,2.9968254 30.4555556,2.53174603 C29.9920635,2.06984127 29.2380952,2.06666667 28.7714286,2.53174603 L24.9190476,6.38253968 L24.9190476,2.58412698 C24.9190476,1.92698413 24.3857143,1.39365079 23.7285714,1.39365079 C23.0714286,1.39365079 22.5380952,1.92698413 22.5380952,2.58412698 L22.5380952,8.76031746 L17.0095238,14.2857143 C16.5444444,14.7507937 16.5444444,15.5047619 17.0095238,15.9698413 C17.2412698,16.2015873 17.5460317,16.3206349 17.8507937,16.3206349 C18.1539683,16.3206349 18.4603175,16.2031746 18.6920635,15.9698413 L25.9269841,8.74285714 L29.8698413,8.74285714 C30.5269841,8.74285714 31.0603175,8.20952381 31.0603175,7.55238095 C31.0603175,6.8952381 30.5269841,6.36190476 29.8698413,6.36190476 Z"></path>
                        <path d="M2.38095238,18.3412698 C1.3031746,18.3412698 0.428571429,19.215873 0.428571429,20.2920635 C0.428571429,21.368254 1.3047619,22.2444444 2.38095238,22.2444444 C3.45714286,22.2444444 4.33174603,21.3666667 4.33174603,20.2920635 C4.33174603,19.2174603 3.45714286,18.3412698 2.38095238,18.3412698 Z"></path>
                        <path d="M2.38095238,25.2015873 C1.3031746,25.2015873 0.428571429,26.0761905 0.428571429,27.152381 C0.428571429,28.2285714 1.3047619,29.1047619 2.38095238,29.1047619 C3.45714286,29.1047619 4.33174603,28.2269841 4.33174603,27.152381 C4.33174603,26.0777778 3.45714286,25.2015873 2.38095238,25.2015873 Z"></path>
                        <path d="M2.38095238,32.068254 C1.3031746,32.068254 0.428571429,32.9396825 0.428571429,34.015873 C0.428571429,35.0920635 1.3047619,35.968254 2.38095238,35.968254 C3.45714286,35.968254 4.33174603,35.0904762 4.33174603,34.015873 C4.33174603,32.9412698 3.45714286,32.068254 2.38095238,32.068254 Z"></path>
                    </g>
                    <path d="M44.3761905,3.14285714 L14.3539683,3.14285714 C13.6968254,3.14285714 13.1634921,2.60952381 13.1634921,1.95238095 C13.1634921,1.2952381 13.6968254,0.761904762 14.3539683,0.761904762 L44.3761905,0.761904762 C45.0333333,0.761904762 45.5666667,1.2952381 45.5666667,1.95238095 C45.5666667,2.60952381 45.0333333,3.14285714 44.3761905,3.14285714 Z" id="Shape" fill="#138CBC"></path>
                    <g transform="translate(22.222222, 7.936508)" fill="#138CBC" id="Shape">
                        <path d="M1.7952381,4.28730159 C0.998412698,4.28730159 0.350793651,3.63650794 0.350793651,2.83650794 C0.350793651,2.03650794 0.998412698,1.38571429 1.7952381,1.38571429 C2.5984127,1.38571429 3.25238095,2.03650794 3.25238095,2.83650794 C3.25238095,3.63650794 2.5984127,4.28730159 1.7952381,4.28730159 Z"></path>
                        <path d="M12.4873016,4.28730159 C11.6873016,4.28730159 11.0365079,3.63650794 11.0365079,2.83650794 C11.0365079,2.03650794 11.6873016,1.38571429 12.4873016,1.38571429 C13.2904762,1.38571429 13.9444444,2.03650794 13.9444444,2.83650794 C13.9444444,3.63650794 13.2904762,4.28730159 12.4873016,4.28730159 Z"></path>
                    </g>
                    <path d="M28.0761905,15.6777778 L22.2285714,15.6777778 C21.5714286,15.6777778 21.0380952,15.1444444 21.0380952,14.4873016 C21.0380952,13.8301587 21.5714286,13.2968254 22.2285714,13.2968254 L28.0761905,13.2968254 C28.7333333,13.2968254 29.2666667,13.8301587 29.2666667,14.4873016 C29.2666667,15.1444444 28.7333333,15.6777778 28.0761905,15.6777778 Z" id="Shape" fill="#ED9015"></path>
                    <path d="M29.3666667,20.3777778 C28.1428571,20.3777778 26.9174603,19.9126984 25.9825397,18.9825397 C25.5174603,18.5174603 25.5142857,17.7634921 25.9793651,17.2984127 C26.4428571,16.8301587 27.1968254,16.8301587 27.6634921,17.2952381 C28.6063492,18.231746 30.131746,18.231746 31.0619048,17.2984127 C31.5253968,16.8301587 32.2825397,16.8301587 32.7460317,17.2952381 C33.2126984,17.7603175 33.2126984,18.5142857 32.7492063,18.9793651 C31.8174603,19.9126984 30.5920635,20.3777778 29.3666667,20.3777778 Z" id="Shape" fill="#D87CA1"></path>
                </g>
            </g>
            <g id="if__snow_tree_1679608" transform="translate(133.000000, 0.000000)" fill-rule="nonzero">
                <g id="Group" transform="translate(16.923077, 75.384615)">
                    <g>
                        <path d="M1.53384615,0.107692308 L1.53384615,9.83076923 L1.53384615,14.9261538 L1.53384615,15.9661538 C1.53384615,17.7246154 2.95846154,19.1507692 4.71538462,19.1507692 C6.47692308,19.1507692 7.9,17.7230769 7.9,15.9661538 L7.9,14.9261538 L7.9,12.7830769 C7.9,11.0246154 9.32461538,9.60153846 11.0815385,9.60153846 C12.8384615,9.60153846 14.2661538,11.0261538 14.2661538,12.7830769 L14.2661538,14.9261538 L14.2661538,18.92 C14.2661538,20.6784615 15.6907692,22.1015385 17.4476923,22.1015385 C19.2046154,22.1015385 20.6323077,20.6769231 20.6323077,18.92 L20.6323077,14.9261538 L20.6323077,12.7830769 L20.6323077,0.106153846 L1.53384615,0.106153846 L1.53384615,0.107692308 Z" id="Shape" fill="#D9F1FF"></path>
                        <path d="M1.53384615,7.04923077 L1.53384615,9.83230769 L1.53384615,12.1430769 L1.53384615,13.1861538 C1.53384615,14.9446154 2.95846154,16.3676923 4.71538462,16.3676923 C6.47692308,16.3676923 7.9,14.9430769 7.9,13.1861538 L7.9,12.7861538 L7.9,12.1430769 L7.9,10 C7.9,8.24461538 9.32461538,6.81846154 11.0815385,6.81846154 C12.8384615,6.81846154 14.2661538,8.24615385 14.2661538,10 L14.2661538,12.1430769 L14.2661538,12.7861538 L14.2661538,14.9292308 L14.2661538,16.14 C14.2661538,17.8953846 15.6907692,19.3215385 17.4476923,19.3215385 C19.2046154,19.3215385 20.6323077,17.8938462 20.6323077,16.14 L20.6323077,14.9292308 L20.6323077,12.7861538 L20.6323077,12.1430769 L20.6323077,10 L20.6323077,0.107692308 L1.53384615,0.107692308 L1.53384615,7.04923077 Z" id="Shape" fill="#AEDCFF"></path>
                        <rect id="Rectangle-path" fill="#AEDCFF" x="1.53384615" y="0.107692308" width="19.1015385" height="6.47230769"></rect>
                    </g>
                    <g transform="translate(29.230769, 0.000000)">
                        <path d="M20.0046154,0.107692308 L20.0046154,9.83076923 L20.0046154,14.9261538 L20.0046154,15.9661538 C20.0046154,17.7246154 18.5769231,19.1507692 16.82,19.1507692 C15.0630769,19.1507692 13.6384615,17.7230769 13.6384615,15.9661538 L13.6384615,14.9261538 L13.6384615,12.7830769 C13.6384615,11.0246154 12.2138462,9.60153846 10.4538462,9.60153846 C8.69846154,9.60153846 7.27538462,11.0261538 7.27538462,12.7830769 L7.27538462,14.9261538 L7.27538462,18.92 C7.27538462,20.6784615 5.85076923,22.1015385 4.09076923,22.1015385 C2.33230769,22.1015385 0.909230769,20.6769231 0.909230769,18.92 L0.909230769,14.9261538 L0.909230769,12.7830769 L0.909230769,0.106153846 L20.0046154,0.106153846 L20.0046154,0.107692308 Z" id="Shape" fill="#D9F1FF"></path>
                        <path d="M20.0046154,7.04923077 L20.0046154,9.83230769 L20.0046154,12.1430769 L20.0046154,13.1861538 C20.0046154,14.9446154 18.5769231,16.3676923 16.82,16.3676923 C15.0630769,16.3676923 13.6384615,14.9430769 13.6384615,13.1861538 L13.6384615,12.7861538 L13.6384615,12.1430769 L13.6384615,10 C13.6384615,8.24461538 12.2138462,6.81846154 10.4538462,6.81846154 C8.69846154,6.81846154 7.27538462,8.24615385 7.27538462,10 L7.27538462,12.1430769 L7.27538462,12.7861538 L7.27538462,14.9292308 L7.27538462,16.14 C7.27538462,17.8953846 5.85076923,19.3215385 4.09076923,19.3215385 C2.33230769,19.3215385 0.909230769,17.8938462 0.909230769,16.14 L0.909230769,14.9292308 L0.909230769,12.7861538 L0.909230769,12.1430769 L0.909230769,10 L0.909230769,0.107692308 L20.0076923,0.107692308 L20.0076923,7.04923077 L20.0046154,7.04923077 Z" id="Shape" fill="#AEDCFF"></path>
                        <rect id="Rectangle-path" fill="#AEDCFF" x="0.906153846" y="0.107692308" width="19.0984615" height="6.47230769"></rect>
                    </g>
                </g>
                <g id="Group">
                    <polygon id="Shape" fill="#C6621E" points="49.7676923 97.4876923 34.8507692 97.4876923 37.3369231 81.3461538 47.2784615 81.3461538"></polygon>
                    <polygon id="Shape" fill="#A0490E" points="45.3707692 97.4876923 39.2446154 97.4876923 40.2661538 81.3461538 44.3523077 81.3461538"></polygon>
                    <g id="Shape">
                        <path d="M60.8092308,29.3723077 C58.7323077,28.6569231 56.7553846,27.1092308 55.1384615,24.6846154 L42.3076923,1.35846154 L29.48,24.6846154 C27.8569231,27.1092308 25.8830769,28.6569231 23.8061538,29.3723077 L60.8092308,29.3723077 Z" fill="#0CAFAF"></path>
                        <path d="M42.3092308,1.35846154 L29.4815385,24.6846154 C27.8584615,27.1092308 25.8846154,28.6569231 23.8076923,29.3723077 L42.3076923,29.3723077 L42.3076923,1.35846154 L42.3092308,1.35846154 Z" fill="#1BC1A9"></path>
                        <path d="M63.0061538,46.0030769 L53.86,29.3707692 L30.7615385,29.3707692 L21.6123077,46.0030769 C18.9984615,49.9184615 15.8107692,52.4092308 12.4630769,53.56 L72.1538462,53.56 C68.8061538,52.4092308 65.6169231,49.9184615 63.0061538,46.0030769 Z" fill="#1BC1A9"></path>
                        <path d="M70.6861538,70.9830769 L61.1030769,53.5615385 L23.5107692,53.5615385 L13.9276923,70.9830769 C10.3430769,76.3492308 5.97076923,79.7692308 1.38307692,81.3461538 L83.2307692,81.3461538 C78.6430769,79.7692308 74.2707692,76.3492308 70.6861538,70.9830769 Z" fill="#1BC1A9"></path>
                    </g>
                    <g transform="translate(16.923077, 0.000000)" id="Shape">
                        <path d="M36.6692308,29.3723077 C35.4046154,28.6569231 34.2,27.1092308 33.2107692,24.6846154 L25.3861538,1.35846154 L17.5615385,24.6846154 C16.5723077,27.1092308 15.3676923,28.6569231 14.1,29.3723077 L36.6692308,29.3723077 Z" fill="#109BAD"></path>
                        <path d="M17.5615385,24.6846154 C16.5723077,27.1092308 15.3676923,28.6569231 14.1,29.3723077 L25.3861538,29.3723077 L25.3861538,1.35846154 L17.5615385,24.6846154 Z" fill="#0CAFAF"></path>
                        <path d="M38.0092308,46.0030769 L32.4323077,29.3707692 L18.3430769,29.3707692 L12.7630769,46.0030769 C11.1707692,49.9184615 9.22615385,52.4092308 7.18307692,53.56 L43.5892308,53.56 C41.5461538,52.4092308 39.6015385,49.9184615 38.0092308,46.0030769 Z" fill="#0CAFAF"></path>
                        <path d="M46.0830769,46.0030769 L36.9369231,29.3707692 L14.6830769,29.3707692 L14.1,29.9507692 L37.7092308,53.56 L55.2307692,53.56 C51.8830769,52.4092308 48.6938462,49.9184615 46.0830769,46.0030769 Z" fill="#0CAFAF"></path>
                        <path d="M38.0092308,46.0030769 L32.4323077,29.3707692 L18.3430769,29.3707692 L17.1323077,32.9830769 L37.7092308,53.56 L43.5892308,53.56 C41.5461538,52.4092308 39.6015385,49.9184615 38.0092308,46.0030769 Z" fill="#109BAD"></path>
                        <path d="M42.6907692,70.9830769 L36.8523077,53.5615385 L13.92,53.5615385 L8.07538462,70.9830769 C5.88769231,76.3492308 3.22615385,79.7692308 0.421538462,81.3461538 L50.3430769,81.3461538 C47.5461538,79.7692308 44.8784615,76.3492308 42.6907692,70.9830769 Z" fill="#0CAFAF"></path>
                        <path d="M53.7630769,70.9830769 L44.18,53.5615385 L8.47230769,53.5615385 L7.18307692,54.8507692 L33.68,81.3476923 L66.3092308,81.3476923 C61.72,79.7692308 57.3476923,76.3492308 53.7630769,70.9830769 Z" fill="#0CAFAF"></path>
                        <path d="M42.6907692,70.9830769 L36.8523077,53.5615385 L13.92,53.5615385 L11.9030769,59.5738462 L33.6784615,81.3461538 L50.3430769,81.3461538 C47.5461538,79.7692308 44.8784615,76.3492308 42.6907692,70.9830769 Z" fill="#109BAD"></path>
                    </g>
                    <path d="M57.0230769,98.6415385 L27.5892308,98.6415385 C26.9523077,98.6415385 26.4353846,98.1246154 26.4353846,97.4876923 C26.4353846,96.8507692 26.9523077,96.3338462 27.5892308,96.3338462 L57.0246154,96.3338462 C57.6615385,96.3338462 58.1784615,96.8507692 58.1784615,97.4876923 C58.1784615,98.1246154 57.66,98.6415385 57.0230769,98.6415385 Z" id="Shape" fill="#A0490E"></path>
                </g>
                <g id="Group" transform="translate(26.153846, 52.307692)">
                    <path d="M18.4569231,1.25230769 L12.4169231,1.25230769 L0.641538462,1.25230769 L0.641538462,10.3215385 L0.641538462,15.0723077 L0.641538462,16.0461538 C0.641538462,17.6830769 1.97230769,19.0153846 3.61076923,19.0153846 C5.25076923,19.0153846 6.58,17.6846154 6.58,16.0461538 L6.58,15.0723077 L6.58,13.0769231 C6.58,11.4369231 7.91076923,10.1076923 9.55230769,10.1076923 C10.9369231,10.1076923 12.0938462,11.0630769 12.4184615,12.3461538 L12.4184615,13.0769231 L12.4184615,15.0723077 L12.4184615,18.7984615 C12.4184615,20.4384615 13.7492308,21.7676923 15.3876923,21.7676923 C15.4061538,21.7676923 15.42,21.7646154 15.4384615,21.7615385 C15.4569231,21.7646154 15.4707692,21.7676923 15.4892308,21.7676923 C17.1261538,21.7676923 18.4584615,20.44 18.4584615,18.7984615 L18.4584615,15.0723077 L18.4584615,13.0769231 L18.4584615,12.3461538 C18.7830769,11.0630769 19.94,10.1076923 21.3246154,10.1076923 C22.9646154,10.1076923 24.2969231,11.4353846 24.2969231,13.0769231 L24.2969231,15.0723077 L24.2969231,16.0461538 C24.2969231,17.6830769 25.6246154,19.0153846 27.2661538,19.0153846 C28.9030769,19.0153846 30.2323077,17.6846154 30.2323077,16.0461538 L30.2323077,15.0723077 L30.2323077,10.3215385 L30.2323077,1.25230769 L18.4569231,1.25230769 Z" id="Shape" fill="#D9F1FF"></path>
                    <path d="M0.641538462,1.25230769 L0.641538462,10.3215385 L0.641538462,15.0723077 L0.641538462,16.0461538 C0.641538462,17.6830769 1.97230769,19.0153846 3.61076923,19.0153846 C5.25076923,19.0153846 6.58,17.6846154 6.58,16.0461538 L6.58,15.0723077 L6.58,13.0769231 C6.58,11.4369231 7.91076923,10.1076923 9.55230769,10.1076923 C11.1892308,10.1076923 12.5215385,11.4353846 12.5215385,13.0769231 L12.5215385,15.0723077 L12.5215385,18.7984615 C12.5215385,20.4384615 13.8492308,21.7676923 15.4907692,21.7676923 C17.1276923,21.7676923 18.46,20.44 18.46,18.7984615 L18.46,15.0723077 L18.46,13.0769231 L18.46,1.25230769 L0.641538462,1.25230769 Z" id="Shape" fill="#FFFFFF"></path>
                    <path d="M0.641538462,7.72461538 L0.641538462,10.3215385 L0.641538462,12.4753846 L0.641538462,13.4492308 C0.641538462,15.0861538 1.97230769,16.4184615 3.61076923,16.4184615 C5.25076923,16.4184615 6.58,15.0876923 6.58,13.4492308 L6.58,13.0769231 L6.58,12.4753846 L6.58,10.48 C6.58,8.84 7.91076923,7.51076923 9.55230769,7.51076923 C11.1892308,7.51076923 12.5215385,8.83846154 12.5215385,10.48 L12.5215385,12.4753846 L12.5215385,13.0769231 L12.5215385,15.0723077 L12.5215385,16.2015385 C12.5215385,17.8415385 13.8492308,19.1707692 15.4907692,19.1707692 C17.1276923,19.1707692 18.46,17.8430769 18.46,16.2015385 L18.46,15.0723077 L18.46,13.0769231 L18.46,12.4753846 L18.46,10.48 L18.46,1.25230769 L0.644615385,1.25230769 L0.644615385,7.72461538 L0.641538462,7.72461538 Z" id="Shape" fill="#D9F1FF"></path>
                    <rect id="Rectangle-path" fill="#AEDCFF" x="0.641538462" y="1.25230769" width="29.5876923" height="6.03692308"></rect>
                </g>
                <g id="Group" transform="translate(41.538462, 29.230769)">
                    <path d="M14.0753846,0.141538462 L14.0753846,6.91384615 L14.0753846,10.4630769 L14.0753846,11.1876923 C14.0753846,12.4107692 13.0815385,13.4046154 11.8584615,13.4046154 C10.6323077,13.4046154 9.64153846,12.4107692 9.64153846,11.1876923 L9.64153846,10.4630769 L9.64153846,8.96923077 C9.64153846,7.74615385 8.64769231,6.75230769 7.42461538,6.75230769 C6.19846154,6.75230769 5.20769231,7.74615385 5.20769231,8.96923077 L5.20769231,10.4630769 L5.20769231,13.2430769 C5.20769231,14.4692308 4.21538462,15.46 2.99076923,15.46 C1.76615385,15.46 0.773846154,14.4676923 0.773846154,13.2430769 L0.773846154,10.4630769 L0.773846154,8.96923077 L0.773846154,0.141538462 L14.0753846,0.141538462 Z" id="Shape" fill="#FFFFFF"></path>
                    <path d="M14.0753846,4.97230769 L14.0753846,6.91384615 L14.0753846,8.52153846 L14.0753846,9.24923077 C14.0753846,10.4723077 13.0815385,11.4661538 11.8584615,11.4661538 C10.6323077,11.4661538 9.64153846,10.4723077 9.64153846,9.24923077 L9.64153846,8.96923077 L9.64153846,8.52153846 L9.64153846,7.03076923 C9.64153846,5.80461538 8.64769231,4.81384615 7.42461538,4.81384615 C6.19846154,4.81384615 5.20769231,5.80615385 5.20769231,7.03076923 L5.20769231,8.52153846 L5.20769231,8.96923077 L5.20769231,10.4630769 L5.20769231,11.3046154 C5.20769231,12.5307692 4.21538462,13.5215385 2.99076923,13.5215385 C1.76615385,13.5215385 0.773846154,12.5292308 0.773846154,11.3046154 L0.773846154,10.4630769 L0.773846154,8.96923077 L0.773846154,8.52153846 L0.773846154,7.03076923 L0.773846154,0.14 L14.0784615,0.14 L14.0784615,4.97230769 L14.0753846,4.97230769 Z" id="Shape" fill="#D9F1FF"></path>
                    <rect id="Rectangle-path" fill="#AEDCFF" x="0.770769231" y="0.141538462" width="13.3046154" height="4.50769231"></rect>
                </g>
            </g>
        </g>
    </g>
</svg>